<svg xmlns="http://www.w3.org/2000/svg" width="67" height="50"><rect id="backgroundrect" width="100%" height="100%" x="0" y="0" fill="none" stroke="none"/><g class="currentLayer" style=""><title>Layer 1</title><g fill="#000000" fill-rule="nonzero" id="svg_1" class="selected" fill-opacity="1"><path d="M1.019,49.874218406076835 l0.792,-2.4370000000000003 h2.706 l0.8150000000000002,2.4370000000000003 h1.053 L3.7800000000000002,42.12621840607683 H2.604 L0,49.874218406076835 h1.019 zm3.306,-3.219 h-2.31 l0.7470000000000002,-2.241 c0.15900000000000006,-0.4710000000000001 0.272,-0.9540000000000002 0.3850000000000001,-1.403 h0.023000000000000013 c0.11300000000000003,0.4490000000000001 0.22600000000000006,0.909 0.3960000000000002,1.4140000000000001 l0.7590000000000002,2.23 zm5.996,3.219 v-3.31 c0,-1.288 -0.012000000000000004,-2.22 -0.06800000000000003,-3.196 l0.034000000000000016,-0.012000000000000004 c0.3730000000000001,0.8400000000000002 0.8830000000000002,1.7240000000000002 1.415,2.587 l2.423,3.93 h0.996 v-7.747 h-0.929 v3.242 c0,1.207 0.023000000000000013,2.15 0.11400000000000003,3.184 l-0.034000000000000016,0.011000000000000006 c-0.3510000000000001,-0.793 -0.804,-1.609 -1.359,-2.517 l-2.434,-3.92 H9.392 v7.748 h0.929 zm8.849,0 l0.792,-2.4370000000000003 h2.706 l0.8150000000000002,2.4370000000000003 h1.053 l-2.604,-7.748 h-1.177 l-2.604,7.748 h1.019 zm3.305,-3.219 h-2.309 l0.7470000000000002,-2.241 c0.15900000000000006,-0.4710000000000001 0.272,-0.9540000000000002 0.3850000000000001,-1.403 h0.023000000000000013 c0.11300000000000003,0.4490000000000001 0.22600000000000006,0.909 0.3960000000000002,1.4140000000000001 l0.7580000000000002,2.23 zm9.314,3.219 v-0.8400000000000002 h-3.26 v-6.908 h-0.997 v7.748 h4.257 zm4.728,0 v-3.3 l2.547,-4.448 h-1.11 l-1.097,2.138 c-0.2950000000000001,0.5870000000000002 -0.5660000000000002,1.092 -0.77,1.598 h-0.023000000000000013 c-0.23800000000000004,-0.54 -0.4750000000000001,-1.011 -0.7580000000000002,-1.598 l-1.076,-2.138 h-1.1320000000000001 l2.423,4.46 v3.2880000000000003 h0.996 zm8.147,0 v-6.897 h2.332 v-0.8500000000000002 h-5.649 v0.8500000000000002 h2.3200000000000003 v6.897 h0.997 zm6.053,0 v-7.748 h-0.996 v7.748 h0.996 zM57.63,50.000218406076826 c0.928,0 1.6640000000000001,-0.18400000000000005 2.015,-0.3680000000000001 l-0.19200000000000006,-0.804 c-0.3960000000000002,0.19500000000000006 -1.008,0.3210000000000001 -1.6190000000000002,0.3210000000000001 c-1.8450000000000002,0 -2.92,-1.206 -2.92,-3.115 c0,-2.034 1.188,-3.195 2.977,-3.195 c0.6340000000000002,0 1.166,0.138 1.528,0.3220000000000001 l0.24900000000000005,-0.8160000000000002 c-0.26,-0.138 -0.8720000000000002,-0.3450000000000002 -1.811,-0.3450000000000002 c-2.366,0 -3.985,1.6320000000000001 -3.985,4.069 c0,2.552 1.6070000000000002,3.931 3.758,3.931 zm6.71,0 c1.8,0 2.66,-1.046 2.66,-2.241 c0,-1.138 -0.6450000000000002,-1.77 -1.936,-2.276 c-1.053,-0.4140000000000001 -1.517,-0.77 -1.517,-1.494 c0,-0.53 0.3960000000000002,-1.161 1.4380000000000002,-1.161 c0.6900000000000004,0 1.2,0.21800000000000005 1.4380000000000002,0.3670000000000001 l0.271,-0.8160000000000002 c-0.3280000000000001,-0.19500000000000006 -0.905,-0.3790000000000001 -1.6750000000000005,-0.3790000000000001 c-1.483,0 -2.468,0.8970000000000002 -2.468,2.103 c0,1.08 0.77,1.7480000000000002 2.015,2.207 c1.03,0.3910000000000001 1.4380000000000002,0.8160000000000002 1.4380000000000002,1.53 c0,0.78 -0.5890000000000002,1.32 -1.596,1.32 c-0.6800000000000004,0 -1.314,-0.21700000000000005 -1.7550000000000003,-0.505 l-0.26,0.8400000000000002 c0.4070000000000001,0.275 1.21,0.505 1.947,0.505 zM11.65,21.54121840607683 v0.6720000000000004 c0,1.098 0.3720000000000001,2.034 1.117,2.807 c0.7460000000000002,0.773 1.6480000000000001,1.1600000000000001 2.707,1.1600000000000001 h12.712 c0.7460000000000002,0 1.315,0.253 1.707,0.7620000000000002 c0.3920000000000001,0.508 0.5880000000000002,1.058 0.5880000000000002,1.6480000000000001 c0,0.5900000000000002 -0.19600000000000006,1.139 -0.5880000000000002,1.6470000000000002 c-0.3920000000000001,0.509 -0.9610000000000002,0.7630000000000002 -1.707,0.7630000000000002 H15.474 a8.112,8.112 0 0 1 -3.295,-0.6710000000000004 A8.334,8.334 0 0 1 9.5,28.46821840607683 a9.007,9.007 0 0 1 -1.824,-2.808 A8.84,8.84 0 0 1 7,22.21321840607683 v-0.6720000000000004 c0,-1.22 0.22600000000000006,-2.36 0.6770000000000004,-3.417 A9.104,9.104 0 0 1 9.5,15.347218406076829 a8.753,8.753 0 0 1 2.678,-1.891 a7.8100000000000005,7.8100000000000005 0 0 1 3.295,-0.7020000000000002 h8.652000000000001 c1.059,0 1.971,-0.3870000000000001 2.736,-1.1600000000000001 c0.7650000000000002,-0.772 1.1480000000000001,-1.7080000000000002 1.1480000000000001,-2.807 a3.946,3.946 0 0 0 -1.1480000000000001,-2.837 c-0.7650000000000002,-0.794 -1.677,-1.19 -2.736,-1.19 V0.00021840607682932503 a7.8100000000000005,7.8100000000000005 0 0 1 3.295,0.7020000000000002 A8.753,8.753 0 0 1 30.1,2.5942184060768296 a9.104,9.104 0 0 1 1.824,2.776 a8.618,8.618 0 0 1 0.6770000000000004,3.417 c0,1.22 -0.22600000000000006,2.36 -0.6770000000000004,3.418 A9.104,9.104 0 0 1 30.1,14.98021840607683 a8.753,8.753 0 0 1 -2.678,1.8920000000000003 a7.8100000000000005,7.8100000000000005 0 0 1 -3.295,0.7020000000000002 h-8.652000000000001 c-0.8630000000000002,0 -1.6280000000000001,0.264 -2.295,0.793 a4.251,4.251 0 0 0 -1.412,2.014 v0.06000000000000002 c-0.040000000000000015,0.20400000000000001 -0.06900000000000003,0.3870000000000001 -0.08800000000000004,0.55 c-0.020000000000000007,0.16300000000000006 -0.030000000000000013,0.3460000000000002 -0.030000000000000013,0.55 zm46.7,0.6720000000000004 c0,-1.099 -0.3720000000000001,-2.035 -1.117,-2.807 c-0.7460000000000002,-0.773 -1.6480000000000001,-1.1600000000000001 -2.707,-1.1600000000000001 h-8.652000000000001 a8.01,8.01 0 0 1 -3.325,-0.7020000000000002 a8.652000000000001,8.652000000000001 0 0 1 -2.707,-1.891 a8.68,8.68 0 0 1 -1.795,-2.777 a8.958,8.958 0 0 1 -0.6470000000000002,-3.417 v-0.6720000000000004 c0,-1.22 0.21600000000000005,-2.36 0.6470000000000002,-3.417 a8.68,8.68 0 0 1 1.795,-2.776 A8.652000000000001,8.652000000000001 0 0 1 42.55,0.7022184060768296 A8.01,8.01 0 0 1 45.874,0.00021840607682932503 h8.652000000000001 a7.8100000000000005,7.8100000000000005 0 0 1 3.295,0.7020000000000002 A8.753,8.753 0 0 1 60.5,2.5942184060768296 a9.104,9.104 0 0 1 1.824,2.776 A8.618,8.618 0 0 1 63,8.78721840607683 c0,0.8140000000000002 -0.24500000000000005,1.4140000000000001 -0.7360000000000002,1.8 c-0.4900000000000001,0.3870000000000001 -1.02,0.5800000000000002 -1.589,0.5800000000000002 c-0.5680000000000002,0 -1.098,-0.19300000000000006 -1.589,-0.5800000000000002 c-0.4200000000000001,-0.3300000000000001 -0.6600000000000003,-0.8190000000000002 -0.7200000000000002,-1.464 l-0.015000000000000006,-0.3360000000000002 c0,-1.098 -0.3730000000000001,-2.044 -1.118,-2.837 c-0.7460000000000002,-0.794 -1.6480000000000001,-1.19 -2.707,-1.19 h-8.652000000000001 c-1.059,0 -1.971,0.3960000000000002 -2.736,1.19 a3.946,3.946 0 0 0 -1.1480000000000001,2.837 v0.6720000000000004 c0,1.098 0.3830000000000001,2.034 1.1480000000000001,2.807 c0.7650000000000002,0.773 1.677,1.1600000000000001 2.736,1.1600000000000001 h8.652000000000001 a7.8100000000000005,7.8100000000000005 0 0 1 3.295,0.7010000000000002 a8.753,8.753 0 0 1 2.678,1.8920000000000003 a9.104,9.104 0 0 1 1.824,2.776 A8.618,8.618 0 0 1 63,22.21321840607683 a8.84,8.84 0 0 1 -0.6770000000000004,3.447 a9.007,9.007 0 0 1 -1.824,2.808 a8.334,8.334 0 0 1 -2.678,1.86 a8.112,8.112 0 0 1 -3.295,0.6720000000000004 v-4.82 c1.059,0 1.961,-0.3870000000000001 2.707,-1.1600000000000001 c0.7450000000000002,-0.773 1.118,-1.709 1.118,-2.807 z" id="svg_2" fill="#000000" fill-opacity="1"/></g></g></svg>